<mxfile host="app.diagrams.net" modified="2023-05-14T03:40:32.881Z" agent="Mozilla/5.0 (Windows NT 10.0; Win64; x64) AppleWebKit/537.36 (KHTML, like Gecko) Chrome/113.0.0.0 Safari/537.36" etag="8IBvT01sBJ2KBFmwk93K" version="21.3.0" type="device">
  <diagram name="Page-1" id="XIkUAOUnMVEHYT-OjZH9">
    <mxGraphModel dx="2736" dy="1890" grid="1" gridSize="10" guides="1" tooltips="1" connect="1" arrows="1" fold="1" page="1" pageScale="1" pageWidth="850" pageHeight="1100" background="none" math="0" shadow="1">
      <root>
        <mxCell id="0" />
        <mxCell id="1" parent="0" />
        <mxCell id="_pSr-NH30RDjIMGI2kqD-27" style="edgeStyle=orthogonalEdgeStyle;rounded=0;orthogonalLoop=1;jettySize=auto;html=1;exitX=1;exitY=0.5;exitDx=0;exitDy=0;" edge="1" parent="1" source="_pSr-NH30RDjIMGI2kqD-2" target="_pSr-NH30RDjIMGI2kqD-24">
          <mxGeometry relative="1" as="geometry" />
        </mxCell>
        <mxCell id="_pSr-NH30RDjIMGI2kqD-2" value="category" style="ellipse;whiteSpace=wrap;html=1;" vertex="1" parent="1">
          <mxGeometry x="-200" y="353" width="110" height="80" as="geometry" />
        </mxCell>
        <mxCell id="_pSr-NH30RDjIMGI2kqD-3" value="spend" style="rounded=0;whiteSpace=wrap;html=1;" vertex="1" parent="1">
          <mxGeometry x="130" y="363" width="120" height="60" as="geometry" />
        </mxCell>
        <mxCell id="_pSr-NH30RDjIMGI2kqD-41" style="edgeStyle=orthogonalEdgeStyle;rounded=0;orthogonalLoop=1;jettySize=auto;html=1;entryX=0.5;entryY=0;entryDx=0;entryDy=0;" edge="1" parent="1" source="_pSr-NH30RDjIMGI2kqD-9" target="_pSr-NH30RDjIMGI2kqD-39">
          <mxGeometry relative="1" as="geometry" />
        </mxCell>
        <mxCell id="_pSr-NH30RDjIMGI2kqD-9" value="client" style="ellipse;whiteSpace=wrap;html=1;" vertex="1" parent="1">
          <mxGeometry x="90" y="-80" width="110" height="80" as="geometry" />
        </mxCell>
        <mxCell id="_pSr-NH30RDjIMGI2kqD-36" style="edgeStyle=orthogonalEdgeStyle;rounded=0;orthogonalLoop=1;jettySize=auto;html=1;exitX=0;exitY=0.5;exitDx=0;exitDy=0;entryX=0.5;entryY=0;entryDx=0;entryDy=0;" edge="1" parent="1" source="_pSr-NH30RDjIMGI2kqD-10" target="_pSr-NH30RDjIMGI2kqD-33">
          <mxGeometry relative="1" as="geometry">
            <mxPoint x="570" as="targetPoint" />
          </mxGeometry>
        </mxCell>
        <mxCell id="_pSr-NH30RDjIMGI2kqD-79" style="edgeStyle=orthogonalEdgeStyle;rounded=0;orthogonalLoop=1;jettySize=auto;html=1;exitX=0.5;exitY=1;exitDx=0;exitDy=0;entryX=0.5;entryY=0;entryDx=0;entryDy=0;" edge="1" parent="1" source="_pSr-NH30RDjIMGI2kqD-10" target="_pSr-NH30RDjIMGI2kqD-77">
          <mxGeometry relative="1" as="geometry" />
        </mxCell>
        <mxCell id="_pSr-NH30RDjIMGI2kqD-10" value="employee" style="ellipse;whiteSpace=wrap;html=1;" vertex="1" parent="1">
          <mxGeometry x="770" y="-80" width="110" height="80" as="geometry" />
        </mxCell>
        <mxCell id="_pSr-NH30RDjIMGI2kqD-11" value="person" style="rounded=0;whiteSpace=wrap;html=1;" vertex="1" parent="1">
          <mxGeometry x="455" y="370" width="120" height="60" as="geometry" />
        </mxCell>
        <mxCell id="_pSr-NH30RDjIMGI2kqD-12" value="role" style="ellipse;whiteSpace=wrap;html=1;" vertex="1" parent="1">
          <mxGeometry x="460" y="120" width="110" height="80" as="geometry" />
        </mxCell>
        <mxCell id="_pSr-NH30RDjIMGI2kqD-20" value="place" style="rounded=0;whiteSpace=wrap;html=1;" vertex="1" parent="1">
          <mxGeometry x="765" y="440" width="120" height="60" as="geometry" />
        </mxCell>
        <mxCell id="_pSr-NH30RDjIMGI2kqD-52" style="edgeStyle=orthogonalEdgeStyle;rounded=0;orthogonalLoop=1;jettySize=auto;html=1;exitX=0.5;exitY=1;exitDx=0;exitDy=0;" edge="1" parent="1" source="_pSr-NH30RDjIMGI2kqD-22" target="_pSr-NH30RDjIMGI2kqD-42">
          <mxGeometry relative="1" as="geometry" />
        </mxCell>
        <mxCell id="_pSr-NH30RDjIMGI2kqD-22" value="contrato" style="ellipse;whiteSpace=wrap;html=1;" vertex="1" parent="1">
          <mxGeometry x="80" y="-340" width="120" height="80" as="geometry" />
        </mxCell>
        <mxCell id="_pSr-NH30RDjIMGI2kqD-45" style="edgeStyle=orthogonalEdgeStyle;rounded=0;orthogonalLoop=1;jettySize=auto;html=1;exitX=0.5;exitY=1;exitDx=0;exitDy=0;" edge="1" parent="1" source="_pSr-NH30RDjIMGI2kqD-23" target="_pSr-NH30RDjIMGI2kqD-43">
          <mxGeometry relative="1" as="geometry" />
        </mxCell>
        <mxCell id="_pSr-NH30RDjIMGI2kqD-23" value="payment" style="ellipse;whiteSpace=wrap;html=1;" vertex="1" parent="1">
          <mxGeometry x="760" y="-340" width="120" height="80" as="geometry" />
        </mxCell>
        <mxCell id="_pSr-NH30RDjIMGI2kqD-26" style="edgeStyle=orthogonalEdgeStyle;rounded=0;orthogonalLoop=1;jettySize=auto;html=1;exitX=1;exitY=0.5;exitDx=0;exitDy=0;" edge="1" parent="1" source="_pSr-NH30RDjIMGI2kqD-24" target="_pSr-NH30RDjIMGI2kqD-3">
          <mxGeometry relative="1" as="geometry" />
        </mxCell>
        <mxCell id="_pSr-NH30RDjIMGI2kqD-24" value="pertenece a&amp;nbsp;" style="rhombus;whiteSpace=wrap;html=1;" vertex="1" parent="1">
          <mxGeometry x="-30" y="338" width="100" height="110" as="geometry" />
        </mxCell>
        <mxCell id="_pSr-NH30RDjIMGI2kqD-28" value="1:1" style="text;html=1;strokeColor=none;fillColor=none;align=center;verticalAlign=middle;whiteSpace=wrap;rounded=0;" vertex="1" parent="1">
          <mxGeometry x="-10" y="305" width="60" height="30" as="geometry" />
        </mxCell>
        <mxCell id="_pSr-NH30RDjIMGI2kqD-35" style="edgeStyle=orthogonalEdgeStyle;rounded=0;orthogonalLoop=1;jettySize=auto;html=1;entryX=0.5;entryY=0;entryDx=0;entryDy=0;" edge="1" parent="1" source="_pSr-NH30RDjIMGI2kqD-33" target="_pSr-NH30RDjIMGI2kqD-12">
          <mxGeometry relative="1" as="geometry" />
        </mxCell>
        <mxCell id="_pSr-NH30RDjIMGI2kqD-33" value="es un" style="rhombus;whiteSpace=wrap;html=1;" vertex="1" parent="1">
          <mxGeometry x="610" width="100" height="110" as="geometry" />
        </mxCell>
        <mxCell id="_pSr-NH30RDjIMGI2kqD-38" value="1:1" style="text;html=1;strokeColor=none;fillColor=none;align=center;verticalAlign=middle;whiteSpace=wrap;rounded=0;" vertex="1" parent="1">
          <mxGeometry x="710" y="40" width="60" height="30" as="geometry" />
        </mxCell>
        <mxCell id="_pSr-NH30RDjIMGI2kqD-40" style="edgeStyle=orthogonalEdgeStyle;rounded=0;orthogonalLoop=1;jettySize=auto;html=1;entryX=0.364;entryY=-0.012;entryDx=0;entryDy=0;entryPerimeter=0;" edge="1" parent="1" source="_pSr-NH30RDjIMGI2kqD-39" target="_pSr-NH30RDjIMGI2kqD-12">
          <mxGeometry relative="1" as="geometry" />
        </mxCell>
        <mxCell id="_pSr-NH30RDjIMGI2kqD-39" value="es un" style="rhombus;whiteSpace=wrap;html=1;" vertex="1" parent="1">
          <mxGeometry x="270" width="100" height="110" as="geometry" />
        </mxCell>
        <mxCell id="_pSr-NH30RDjIMGI2kqD-50" style="edgeStyle=orthogonalEdgeStyle;rounded=0;orthogonalLoop=1;jettySize=auto;html=1;exitX=0.5;exitY=1;exitDx=0;exitDy=0;entryX=0.727;entryY=0.063;entryDx=0;entryDy=0;entryPerimeter=0;" edge="1" parent="1" source="_pSr-NH30RDjIMGI2kqD-42" target="_pSr-NH30RDjIMGI2kqD-9">
          <mxGeometry relative="1" as="geometry" />
        </mxCell>
        <mxCell id="_pSr-NH30RDjIMGI2kqD-42" value="es dado por&amp;nbsp;" style="rhombus;whiteSpace=wrap;html=1;" vertex="1" parent="1">
          <mxGeometry x="90" y="-220" width="100" height="110" as="geometry" />
        </mxCell>
        <mxCell id="_pSr-NH30RDjIMGI2kqD-49" style="edgeStyle=orthogonalEdgeStyle;rounded=0;orthogonalLoop=1;jettySize=auto;html=1;exitX=0.5;exitY=1;exitDx=0;exitDy=0;entryX=0;entryY=0;entryDx=0;entryDy=0;" edge="1" parent="1" source="_pSr-NH30RDjIMGI2kqD-43" target="_pSr-NH30RDjIMGI2kqD-10">
          <mxGeometry relative="1" as="geometry" />
        </mxCell>
        <mxCell id="_pSr-NH30RDjIMGI2kqD-43" value="es dado a un" style="rhombus;whiteSpace=wrap;html=1;" vertex="1" parent="1">
          <mxGeometry x="770" y="-230" width="100" height="110" as="geometry" />
        </mxCell>
        <mxCell id="_pSr-NH30RDjIMGI2kqD-44" value="N:1" style="text;html=1;strokeColor=none;fillColor=none;align=center;verticalAlign=middle;whiteSpace=wrap;rounded=0;" vertex="1" parent="1">
          <mxGeometry x="180" y="-180" width="60" height="30" as="geometry" />
        </mxCell>
        <mxCell id="_pSr-NH30RDjIMGI2kqD-48" value="N:1" style="text;html=1;strokeColor=none;fillColor=none;align=center;verticalAlign=middle;whiteSpace=wrap;rounded=0;" vertex="1" parent="1">
          <mxGeometry x="860" y="-190" width="60" height="30" as="geometry" />
        </mxCell>
        <mxCell id="_pSr-NH30RDjIMGI2kqD-54" style="edgeStyle=orthogonalEdgeStyle;rounded=0;orthogonalLoop=1;jettySize=auto;html=1;exitX=0.5;exitY=0;exitDx=0;exitDy=0;entryX=0.5;entryY=1;entryDx=0;entryDy=0;" edge="1" parent="1" source="_pSr-NH30RDjIMGI2kqD-53" target="_pSr-NH30RDjIMGI2kqD-12">
          <mxGeometry relative="1" as="geometry" />
        </mxCell>
        <mxCell id="_pSr-NH30RDjIMGI2kqD-55" style="edgeStyle=orthogonalEdgeStyle;rounded=0;orthogonalLoop=1;jettySize=auto;html=1;exitX=0.5;exitY=1;exitDx=0;exitDy=0;entryX=0.5;entryY=0;entryDx=0;entryDy=0;" edge="1" parent="1" source="_pSr-NH30RDjIMGI2kqD-53" target="_pSr-NH30RDjIMGI2kqD-11">
          <mxGeometry relative="1" as="geometry" />
        </mxCell>
        <mxCell id="_pSr-NH30RDjIMGI2kqD-53" value="pertenece a&amp;nbsp;" style="rhombus;whiteSpace=wrap;html=1;" vertex="1" parent="1">
          <mxGeometry x="465" y="235" width="100" height="110" as="geometry" />
        </mxCell>
        <mxCell id="_pSr-NH30RDjIMGI2kqD-56" value="1:1" style="text;html=1;strokeColor=none;fillColor=none;align=center;verticalAlign=middle;whiteSpace=wrap;rounded=0;" vertex="1" parent="1">
          <mxGeometry x="550" y="275" width="60" height="30" as="geometry" />
        </mxCell>
        <mxCell id="_pSr-NH30RDjIMGI2kqD-70" style="edgeStyle=orthogonalEdgeStyle;rounded=0;orthogonalLoop=1;jettySize=auto;html=1;exitX=0.5;exitY=1;exitDx=0;exitDy=0;" edge="1" parent="1" source="_pSr-NH30RDjIMGI2kqD-58" target="_pSr-NH30RDjIMGI2kqD-20">
          <mxGeometry relative="1" as="geometry" />
        </mxCell>
        <mxCell id="_pSr-NH30RDjIMGI2kqD-58" value="pertenece a&amp;nbsp;" style="rhombus;whiteSpace=wrap;html=1;" vertex="1" parent="1">
          <mxGeometry x="775" y="290" width="100" height="110" as="geometry" />
        </mxCell>
        <mxCell id="_pSr-NH30RDjIMGI2kqD-59" value="N:N" style="text;html=1;strokeColor=none;fillColor=none;align=center;verticalAlign=middle;whiteSpace=wrap;rounded=0;" vertex="1" parent="1">
          <mxGeometry x="860" y="330" width="60" height="30" as="geometry" />
        </mxCell>
        <mxCell id="_pSr-NH30RDjIMGI2kqD-69" style="edgeStyle=orthogonalEdgeStyle;rounded=0;orthogonalLoop=1;jettySize=auto;html=1;exitX=0.5;exitY=1;exitDx=0;exitDy=0;entryX=0.5;entryY=0;entryDx=0;entryDy=0;" edge="1" parent="1" source="_pSr-NH30RDjIMGI2kqD-62" target="_pSr-NH30RDjIMGI2kqD-58">
          <mxGeometry relative="1" as="geometry" />
        </mxCell>
        <mxCell id="_pSr-NH30RDjIMGI2kqD-62" value="vehicle" style="ellipse;whiteSpace=wrap;html=1;" vertex="1" parent="1">
          <mxGeometry x="770" y="180" width="110" height="80" as="geometry" />
        </mxCell>
        <mxCell id="_pSr-NH30RDjIMGI2kqD-65" value="" style="edgeStyle=orthogonalEdgeStyle;rounded=0;orthogonalLoop=1;jettySize=auto;html=1;" edge="1" parent="1" source="_pSr-NH30RDjIMGI2kqD-63" target="_pSr-NH30RDjIMGI2kqD-64">
          <mxGeometry relative="1" as="geometry" />
        </mxCell>
        <mxCell id="_pSr-NH30RDjIMGI2kqD-63" value="aditional_service" style="ellipse;whiteSpace=wrap;html=1;" vertex="1" parent="1">
          <mxGeometry x="1110" y="430" width="110" height="80" as="geometry" />
        </mxCell>
        <mxCell id="_pSr-NH30RDjIMGI2kqD-66" value="" style="edgeStyle=orthogonalEdgeStyle;rounded=0;orthogonalLoop=1;jettySize=auto;html=1;" edge="1" parent="1" source="_pSr-NH30RDjIMGI2kqD-64" target="_pSr-NH30RDjIMGI2kqD-20">
          <mxGeometry relative="1" as="geometry" />
        </mxCell>
        <mxCell id="_pSr-NH30RDjIMGI2kqD-64" value="pertenece a&amp;nbsp;" style="rhombus;whiteSpace=wrap;html=1;" vertex="1" parent="1">
          <mxGeometry x="930" y="415" width="100" height="110" as="geometry" />
        </mxCell>
        <mxCell id="_pSr-NH30RDjIMGI2kqD-67" value="1:N" style="text;html=1;strokeColor=none;fillColor=none;align=center;verticalAlign=middle;whiteSpace=wrap;rounded=0;" vertex="1" parent="1">
          <mxGeometry x="950" y="385" width="60" height="30" as="geometry" />
        </mxCell>
        <mxCell id="_pSr-NH30RDjIMGI2kqD-75" style="edgeStyle=orthogonalEdgeStyle;rounded=0;orthogonalLoop=1;jettySize=auto;html=1;exitX=0.5;exitY=1;exitDx=0;exitDy=0;entryX=0.558;entryY=-0.05;entryDx=0;entryDy=0;entryPerimeter=0;" edge="1" parent="1" source="_pSr-NH30RDjIMGI2kqD-71" target="_pSr-NH30RDjIMGI2kqD-22">
          <mxGeometry relative="1" as="geometry" />
        </mxCell>
        <mxCell id="_pSr-NH30RDjIMGI2kqD-71" value="es dado por&amp;nbsp;" style="rhombus;whiteSpace=wrap;html=1;" vertex="1" parent="1">
          <mxGeometry x="95" y="-490" width="100" height="110" as="geometry" />
        </mxCell>
        <mxCell id="_pSr-NH30RDjIMGI2kqD-73" style="edgeStyle=orthogonalEdgeStyle;rounded=0;orthogonalLoop=1;jettySize=auto;html=1;exitX=0.5;exitY=1;exitDx=0;exitDy=0;entryX=0.5;entryY=0;entryDx=0;entryDy=0;" edge="1" parent="1" source="_pSr-NH30RDjIMGI2kqD-72" target="_pSr-NH30RDjIMGI2kqD-71">
          <mxGeometry relative="1" as="geometry">
            <mxPoint x="145" y="-480" as="targetPoint" />
          </mxGeometry>
        </mxCell>
        <mxCell id="_pSr-NH30RDjIMGI2kqD-72" value="income" style="ellipse;whiteSpace=wrap;html=1;" vertex="1" parent="1">
          <mxGeometry x="85" y="-600" width="120" height="80" as="geometry" />
        </mxCell>
        <mxCell id="_pSr-NH30RDjIMGI2kqD-76" value="N:1" style="text;html=1;strokeColor=none;fillColor=none;align=center;verticalAlign=middle;whiteSpace=wrap;rounded=0;" vertex="1" parent="1">
          <mxGeometry x="200" y="-450" width="60" height="30" as="geometry" />
        </mxCell>
        <mxCell id="_pSr-NH30RDjIMGI2kqD-80" style="edgeStyle=orthogonalEdgeStyle;rounded=0;orthogonalLoop=1;jettySize=auto;html=1;exitX=0.5;exitY=1;exitDx=0;exitDy=0;entryX=0.5;entryY=0;entryDx=0;entryDy=0;" edge="1" parent="1" source="_pSr-NH30RDjIMGI2kqD-77" target="_pSr-NH30RDjIMGI2kqD-62">
          <mxGeometry relative="1" as="geometry" />
        </mxCell>
        <mxCell id="_pSr-NH30RDjIMGI2kqD-77" value="pertenece a&amp;nbsp;" style="rhombus;whiteSpace=wrap;html=1;" vertex="1" parent="1">
          <mxGeometry x="775" y="40" width="100" height="110" as="geometry" />
        </mxCell>
        <mxCell id="_pSr-NH30RDjIMGI2kqD-78" value="M:1" style="text;html=1;strokeColor=none;fillColor=none;align=center;verticalAlign=middle;whiteSpace=wrap;rounded=0;" vertex="1" parent="1">
          <mxGeometry x="865" y="80" width="60" height="30" as="geometry" />
        </mxCell>
      </root>
    </mxGraphModel>
  </diagram>
</mxfile>
